# xmcd
#
# Track frame offsets:
#	150
#	16077
#	31027
#	44520
#	59745
#	74635
#	90407
#	101335
#	114502
#	128707
#
# Disc length: 1888 seconds
#
# Revision: 0
# Processed by: cddbd v1.5.2PL0 Copyright (c) Steve Scherf et al.
# Submitted via: audiograbber 1.83.01
#
DISCID=7e075e0a
DTITLE=Tammy Wynette - Heart Over Mind
DYEAR=1990
DGENRE=Country
TTITLE0=Let's Call It A Day Today
TTITLE1=I'm Turning You Loose
TTITLE2=Suddenly Single
TTITLE3=What Goes With Blue
TTITLE4=Just For A Minute Then
TTITLE5=Half The Way Home
TTITLE6=I'm Falling Heart Over Mind
TTITLE7=Where's The Fire
TTITLE8=If You Were The Friend
TTITLE9=One Stone At A Time
EXTD=
EXTT0=
EXTT1=
EXTT2=
EXTT3=
EXTT4=
EXTT5=
EXTT6=
EXTT7=
EXTT8=
EXTT9=
PLAYORDER=
